<?xml version="1.0" encoding="utf-8"?>
<!-- Generator: Adobe Illustrator 16.0.0, SVG Export Plug-In . SVG Version: 6.00 Build 0)  -->
<!DOCTYPE svg PUBLIC "-//W3C//DTD SVG 1.1//EN" "http://www.w3.org/Graphics/SVG/1.1/DTD/svg11.dtd">
<svg version="1.1" xmlns="http://www.w3.org/2000/svg" xmlns:xlink="http://www.w3.org/1999/xlink" x="0px" y="0px"
	 width="177.195px" height="94.667px" viewBox="0 0 177.195 94.667" enable-background="new 0 0 177.195 94.667"
	 xml:space="preserve">
<g id="Layer_1">
	<path fill="#FF555E" d="M150.311,14.734c0,0,0.342-2.271,2.684-3.305c2.552-1.125,5.631-1.292,8.769,1.7
		c2.751,2.628,1.913,5.177,1.913,5.177L150.311,14.734z"/>
	
		<path fill="#FFFFFF" stroke="#000000" stroke-width="1.5" stroke-linecap="square" stroke-linejoin="bevel" stroke-miterlimit="10" d="
		M150.813,17.06c-0.224,2.045-3.506,3.328-3.506,3.328l-12.876,1.961l15.356,1.847c0,0-0.365,6.403-1.751,10.109
		c-1.384,3.706-4.055,11.55-2.763,15.226c2.256,6.397,5.201,10.529,5.201,10.529l12.031,16.366c0,0,0.193-11.675,0.436-12.892
		c0.241-1.217,0.358-3.055,2.333-7.673c1.577-3.694,2.188-9.924,0.422-14.719c-1.77-4.79-8.868-15.141-6.837-16.044
		c2.254-1.002,2.861-0.556,3.679-4.95"/>
	
		<path fill="none" stroke="#231F20" stroke-width="1.1403" stroke-linecap="square" stroke-linejoin="bevel" stroke-miterlimit="10" d="
		M150.589,19.105"/>
	
		<line fill="none" stroke="#000000" stroke-width="1.5" stroke-linecap="square" stroke-linejoin="bevel" stroke-miterlimit="10" x1="149.653" y1="59.418" x2="10.969" y2="59.418"/>
</g>
<g id="Layer_4">
	<rect x="9.24" y="66.399" fill="none" width="169.881" height="49.184"/>
	<text transform="matrix(1 0 0 1 9.2397 75.8911)" fill="#231F20" font-family="'Calibri-Light'" font-size="14">Oivalla, opi ­­&amp; osaa!</text>
</g>
<g id="Layer_6">
</g>
<g id="Layer_3" display="none">
</g>
<g id="Layer_2">
	
		<line fill="none" stroke="#000000" stroke-width="2.6219" stroke-linejoin="bevel" stroke-miterlimit="10" x1="12.375" y1="54" x2="12.375" y2="28.25"/>
	<polyline fill="none" stroke="#000000" stroke-width="2.5" stroke-linejoin="bevel" stroke-miterlimit="10" points="22.718,54 
		22.849,28.563 37.749,53.812 37.749,28.612 	"/>
	<polyline fill="none" stroke="#000000" stroke-width="2.5" stroke-linejoin="bevel" stroke-miterlimit="10" points="93.246,54 
		93.375,28.752 103.403,39.188 	"/>
	<polyline fill="none" stroke="#000000" stroke-width="2.5" stroke-linejoin="bevel" stroke-miterlimit="10" points="112.14,54 
		112.266,28.752 101.965,39.406 	"/>
	
		<line fill="none" stroke="#000000" stroke-width="2.619" stroke-linejoin="bevel" stroke-miterlimit="10" x1="53.47" y1="54" x2="53.47" y2="30.25"/>
	
		<line fill="none" stroke="#000000" stroke-width="2.625" stroke-linejoin="bevel" stroke-miterlimit="10" x1="61.813" y1="29.846" x2="45.313" y2="29.846"/>
	
		<ellipse fill="none" stroke="#000000" stroke-width="2.5" stroke-linejoin="bevel" stroke-miterlimit="10" cx="75.237" cy="40.977" rx="10.863" ry="11.078"/>
	<polyline fill="none" stroke="#000000" stroke-width="2.5" stroke-linejoin="bevel" stroke-miterlimit="10" points="
		118.813,53.812 128.459,28.811 138.313,53.812 	"/>
	
		<line fill="none" stroke="#000000" stroke-width="3" stroke-linejoin="bevel" stroke-miterlimit="10" x1="123.202" y1="42.436" x2="133.928" y2="42.436"/>
</g>
<g id="Layer_5">
</g>
</svg>
